# xmcd
# 
# Track frame offsets:
#     150
#     14505
#     31515
#     46905
#     58765
#     76967
#     90700
#     105700
#     117975
#     134892
#     148497
#     161067
#     174850
#     187297
#     209117
#     223990
#     237737
#     249872
#     264280
#     274727
# 
# Disc length: 3854
# 
# Revision: 4
# Processed by: cddbd v1.5.2PL0 Copyright (c) Steve Scherf et al.
# Submitted via: fre:ac v1.0.31
# 
DISCID=360f0c14
DTITLE=Dwight Yoakam - Guitars, Cadillacs, etc., etc Disc 1
DYEAR=1986
DGENRE=Country
TTITLE0=This drinkin' will kill me (Demo 1981)
TTITLE1=It won't hurt (Demo 1981)
TTITLE2=I'll be gone (Demo 1981)
TTITLE3=Floyd County (Demo 1981)
TTITLE4=You're the one (Demo 1981)
TTITLE5=Twenty years (Demo 1981)
TTITLE6=Please daddy (Demo 1981)
TTITLE7=Miner's prayer (Demo 1981)
TTITLE8=I sang dixie (Demo 1981)
TTITLE9=Bury me (Demo 1981)
TTITLE10=Honky tonk man
TTITLE11=It won't hurt
TTITLE12=I'll be gone
TTITLE13=South of Cincinnati
TTITLE14=Bury me (Duet with Maria McKee)
TTITLE15=Guitars, Cadillacs
TTITLE16=Twenty years
TTITLE17=Ring of fire
TTITLE18=Miner's prayer
TTITLE19=Heartaches by the number
EXTD=
EXTT0=
EXTT1=
EXTT2=
EXTT3=
EXTT4=
EXTT5=
EXTT6=
EXTT7=
EXTT8=
EXTT9=
EXTT10=
EXTT11=
EXTT12=
EXTT13=
EXTT14=
EXTT15=
EXTT16=
EXTT17=
EXTT18=
EXTT19=
PLAYORDER=
